<svg xmlns="http://www.w3.org/2000/svg" viewBox="0 0 282.84 282.84"><defs><style>.cls-1{fill:#f5f5f5;}.cls-2,.cls-3,.cls-7{fill:none;}.cls-2,.cls-3,.cls-6,.cls-7{stroke:#3c3c3b;stroke-miterlimit:10;}.cls-2,.cls-3{stroke-width:7.55px;}.cls-3,.cls-7{stroke-linecap:round;}.cls-4,.cls-6{fill:#3c3c3b;}.cls-5{fill:#55a7d8;}.cls-6{stroke-width:1.6px;}.cls-7{stroke-width:7.37px;}.cls-8{font-size:22.64px;fill:#1c1c1b;font-family:Krungthep;}</style></defs><g id="Layer_2" data-name="Layer 2"><circle class="cls-1" cx="141.42" cy="141.42" r="141.42"/><circle class="cls-2" cx="108.39" cy="141.42" r="23.65"/><circle class="cls-2" cx="173.47" cy="141.42" r="23.65"/><line class="cls-2" x1="130.2" y1="129.61" x2="150.8" y2="129.61"/><path class="cls-3" d="M92.27,174.46c11.62,14.87,27.53,26.22,46.79,28.26,21.07,2.22,39.69-11.65,51.21-28.1" transform="translate(0 -0.62)"/><path class="cls-3" d="M120.35,175.47s18.51,23.31,39.07,0" transform="translate(0 -0.62)"/><path class="cls-4" d="M101.16,89.11C93.31,86.26,84,84,78.81,92.51c-3.52,5.79-6.26,22.58,2.47,25.89l21.59-21.07c.94-.91,15.5,4,17,4.33A176.8,176.8,0,0,0,157.3,106c10.75,0,22.16-1.32,31.75-6.52,6.68-3.62,13.53-10.48,15.79-17.88,4.6-15.11-15.16-27.15-27.35-29.62-22.42-4.53-43.75,8.69-60.25,22.39C115.6,75.68,101.74,89.32,101.16,89.11Z" transform="translate(0 -0.62)"/><path class="cls-4" d="M102.41,84.56c-4.31-1.55-9-2.93-13.59-2.71a16.94,16.94,0,0,0-13.67,7.63,26.52,26.52,0,0,0-3.65,9.78,33.73,33.73,0,0,0-.21,12.86A14.15,14.15,0,0,0,80,123a4.67,4.67,0,0,0,4.59-1.22l10.7-10.44,7.41-7.23c1.15-1.12,2.43-2.18,3.48-3.39.42-.48-2.75,1.35-1.89,1.13-2.4.63-1.28.07-.92.14a3,3,0,0,0,.59,0c-1.23.1-1.21-.19-.65-.08l.42.08c.42.08.84.18,1.26.27,1.77.42,3.53.93,5.27,1.44,2.79.82,5.55,1.83,8.37,2.52a171.55,171.55,0,0,0,22.51,3.62,141.12,141.12,0,0,0,21.26.72c13.44-.62,27.19-3.72,37.33-13.11,4.56-4.22,8.75-9.92,10-16.12A21.22,21.22,0,0,0,207,66.08c-5.18-8.64-14.8-14.49-24.17-17.58-11.75-3.87-24.9-2.31-36.25,2.12-12,4.69-23.07,12-32.81,20.45-4.86,4.19-9.24,8.94-14,13.2-.4.34-.83.66-1.21,1s1.23-.82.52-.41l-.16.1a4.92,4.92,0,0,1,2.24-.6c-2.46-.33-4.82,2.41-4.72,4.72.13,2.84,2.09,4.36,4.72,4.72,1.75.23,3.36-1.24,4.56-2.27s2.19-2,3.27-3c2.75-2.56,5.46-5.17,8.18-7.77,2.43-2.32,4.93-4.45,7.57-6.54l0,0,1-.76,1.69-1.26c1.36-1,2.75-2,4.15-2.93q3.87-2.64,7.95-5a92.73,92.73,0,0,1,8.35-4.16c-.83.37,0,0,.24-.09l1-.39c.65-.25,1.31-.5,2-.73q2.35-.85,4.79-1.51c1.4-.38,2.82-.71,4.26-1,.74-.14,1.5-.26,2.25-.38.92-.14.16,0,0,0L164,56a46.57,46.57,0,0,1,9.22.06c.13,0,1.53.2.44,0l.85.13q1,.16,2.07.39c1,.21,2,.47,2.95.77s2,.66,3,1l.55.22c1,.4,0,.17,0,0a11.21,11.21,0,0,0,1.67.76,49.37,49.37,0,0,1,6.05,3.44c.44.3.88.6,1.31.92a4.79,4.79,0,0,1,.77.57c-.8-.88-.22-.17,0,0,.89.73,1.76,1.49,2.58,2.3s1.54,1.63,2.26,2.5c.56.68-.2-.22-.19-.24s.49.67.53.72c.33.49.65,1,.94,1.49s.52.93.75,1.41a4.3,4.3,0,0,0,.3.65c-.64-.92-.22-.51-.06-.06.35,1,.41,2.07.77,3-.4-1-.08-.66,0-.12q0,.36,0,.72a14.07,14.07,0,0,1,0,1.59c0,.14,0,1.1,0,.25s0,.1-.06.27a17,17,0,0,1-.5,1.86c-.12.37-.25.72-.38,1.09-.43,1.19.45-.84-.14.3-.3.58-.58,1.18-.91,1.75s-.68,1.15-1.05,1.71c-.23.34-.47.66-.7,1-.61.9.38-.43-.25.34a40.36,40.36,0,0,1-3.06,3.35c-.49.47-1,.93-1.51,1.38l-.94.79c-.83.72.49-.33-.32.25A39.05,39.05,0,0,1,187.32,95q-.88.51-1.8,1l-1.16.56c-.14.07-1.44.64-1,.46.63-.26-.68.27-.63.25l-1.2.45c-.68.24-1.36.46-2,.68-1.58.49-3.18.9-4.8,1.26-1.47.32-3,.59-4.46.81-.12,0-1.55.2-.47.07l-.86.11c-.93.1-1.86.2-2.8.27a127.93,127.93,0,0,1-20.53-.08c-1.62-.13-3.25-.28-4.87-.46-.9-.09-1.79-.2-2.68-.31l-1.21-.15c.78.1-1-.15-1.18-.17q-5.33-.78-10.62-1.82a100,100,0,0,1-9.93-2.62,61.6,61.6,0,0,0-10.94-2.71A5.67,5.67,0,0,0,99.49,94c-.43.4-.84.82-1.25,1.22l-6.06,5.92-13.35,13-.88.86,4.59-1.21c1.42.56.29.11-.06-.1-.13-.08-.26-.18-.39-.25-.5-.23.78.72.4.32-.24-.24-.51-.47-.75-.71-.79-.79.43.74,0,0-.19-.31-.38-.6-.55-.91-.07-.15-.13-.3-.21-.44-.25-.44.2-.23.19.46a12.32,12.32,0,0,0-.66-2.18c-.08-.35-.13-.69-.2-1-.14-.77.06.4.06.46a3.31,3.31,0,0,0-.06-.54c-.07-.83-.1-1.66-.1-2.49s0-1.6.11-2.4c0-.37.08-.75.12-1.12.06-.67-.2,1.25,0,.27,0-.23.07-.46.11-.69a33.79,33.79,0,0,1,1.09-4.52c.19-.6.42-1.19.64-1.79s-.53,1.1,0,.13c.15-.3.29-.6.45-.9s.32-.54.49-.81.28-.41.42-.62c-.56.84-.14.18,0,0a9.75,9.75,0,0,1,1-1c.16-.15.34-.29.49-.44s-.81.51.08,0c.36-.21.72-.42,1.09-.61.6-.32.14-.06.13-.08l-.28.13c.19-.08.39-.14.58-.2a9.76,9.76,0,0,1,1.18-.31,5.27,5.27,0,0,0,.6-.12c-.08.18-1.18.12,0,0a18.77,18.77,0,0,1,3,0c.22,0,.43.06.65.07.6,0-1-.18-.12,0,.54.11,1.08.2,1.62.32a51.4,51.4,0,0,1,6.41,1.94,4.76,4.76,0,0,0,5.8-3.3A4.85,4.85,0,0,0,102.41,84.56Z" transform="translate(0 -0.62)"/><path class="cls-5" d="M38.44,234.85l60.15-22v64.09S55.2,262.13,38.44,234.85Z" transform="translate(0 -0.62)"/><path class="cls-5" d="M39.05,235.18c.44.51.85,1,1.21,1.47l.27.38.34.42.67.86c.87,1.16,1.85,2.23,2.74,3.37,1.88,2.2,3.91,4.29,6,6.31s3.95,4.3,6.21,6.17,4.29,4,6.67,5.74,4.87,3.3,7.34,4.9,5,3.07,7.58,4.54,5.4,2.42,8,3.76,5,3.24,7.68,4.46c1.32.58,2.65,1.07,4.07,1.54l3.11,1-.06-3.21c0-1.52-.06-3,0-4.54.12-3.31.19-6.63.24-10s-.31-6.64-.3-10l.14-10c0-3.32.27-6.64.32-10s-.21-6.53-.19-9.78.38-6.53.35-9.79v-.14l0-4.11-3.83,1.42c-3.11,1.16-6.31,2.16-9.41,3.38s-6,3-9,4.24c-2.77,1.13-6,1.8-8.71,3s-4.92,2.83-7.56,4-5.9,1.92-8.54,3.09-5,2.43-7.57,3.53-4.9,2.3-7.53,3.34c-.79.32-.16.52.64.21,3-1.12,6.27-2.11,9.29-3.19s5.6-2.46,8.69-3.55,6.59-1.8,9.67-2.81,6.06-2.15,9.14-3.14,6.26-1.82,9.3-2.79,6.14-1.83,9.15-2.81c1.45-.47,2.87-1,4.29-1.52l-3.23-2.26c0,1.7,0,3.4,0,5.1-.09,3.26,0,6.53,0,9.79s-.46,6.61-.48,9.92-.06,6.62,0,9.93.1,6.64.26,9.94.62,6.6.93,9.88.38,6.36.5,9.53L99,275.74l-.32-.1a92.7,92.7,0,0,1-9.35-3.05c-3-1.31-5.95-2.79-8.86-4.33s-5.68-3.29-8.48-5c-2.51-1.53-5-3.11-7.39-4.77s-4.74-3.45-7-5.24-4.47-3.76-6.64-5.7-4.29-3.92-6.28-6.06c-.94-1.1-1.92-2.19-2.77-3.37l-1.25-1.61a12.42,12.42,0,0,0-1.26-1.24C39.15,235.07,38.87,235,39.05,235.18Z" transform="translate(0 -0.62)"/><path class="cls-5" d="M181,278.55l1.92-64,59.49,23.82S212.58,273.13,181,278.55Z" transform="translate(0 -0.62)"/><path class="cls-5" d="M181.55,278.11c.64-.21,1.23-.42,1.82-.58l.45-.11.52-.15,1-.3c1.4-.38,2.75-.89,4.14-1.3,2.75-.93,5.44-2,8.09-3.21s5.46-2.07,8-3.47,5.32-2.5,7.81-4.07,4.87-3.29,7.28-5,4.71-3.52,7-5.35,4.25-4.11,6.47-6,4.86-3.41,7-5.48c1-1,2-2.06,3-3.2l2.11-2.51-3-1.14c-1.42-.54-2.83-1.07-4.22-1.68q-4.55-2-9.15-3.92c-3.07-1.28-6.28-2.19-9.36-3.43l-9.19-3.84c-3.08-1.24-6.07-2.71-9.13-4s-6.14-2.24-9.16-3.46-5.91-2.77-9-4l-.13-.06-3.83-1.5-.1,4.08c-.08,3.32-.33,6.66-.36,10s.55,6.63.58,10c0,3-.55,6.21-.46,9.2s.79,5.61.88,8.5-.41,6.19-.3,9.07.41,5.51.46,8.34.32,5.4.31,8.23c0,.85.41.35.43-.51.06-3.18.37-6.61.48-9.82s-.2-6.11-.06-9.38.78-6.79,1-10,.26-6.43.48-9.66.64-6.48.87-9.67.57-6.37.79-9.53c.1-1.52.14-3,.18-4.56l-3.3,2.16c1.58.63,3.17,1.24,4.73,1.92,3,1.3,6.07,2.39,9.08,3.66s6,2.88,9,4.13,6.13,2.52,9.22,3.7,6.19,2.38,9.32,3.45,6.35,1.88,9.52,2.81,6,2,9,3.08l-.49-2-.2.26a94.13,94.13,0,0,1-6.31,7.55c-2.34,2.31-4.81,4.49-7.32,6.62s-5.16,4-7.8,6c-2.36,1.76-4.74,3.47-7.18,5.09s-5,3.12-7.49,4.59-5.15,2.75-7.75,4-5.24,2.53-8,3.58c-1.38.46-2.75,1-4.16,1.32l-2,.56a12.37,12.37,0,0,0-1.62.71C181.49,278,181.29,278.2,181.55,278.11Z" transform="translate(0 -0.62)"/><circle class="cls-6" cx="140.12" cy="248.95" r="3.92"/><circle class="cls-6" cx="140.12" cy="269.39" r="3.92"/><polyline class="cls-7" points="105.61 212.21 123.58 232.43 140.57 215.97 155.6 232.43 175.53 212.21"/><text class="cls-8" transform="translate(41.53 226.8) rotate(-21.92)">T</text><text class="cls-8" transform="translate(52.04 222.57) rotate(-21.92)">I</text><text class="cls-8" transform="matrix(0.93, -0.37, 0.37, 0.93, 62.55, 218.34)">M</text></g></svg>